<svg xmlns="http://www.w3.org/2000/svg" width="32" height="32" viewBox="0 0 32 32"><path fill-rule="evenodd" d="M6.436 13.676c.64-3.846 3.74-6.948 7.588-7.588 2.93-.487 5.653.412 7.646 2.138.263.228.263.638.017.883L9.457 21.34c-.245.245-.656.245-.883-.018-1.726-1.992-2.625-4.717-2.138-7.646M31.598.738L31.26.402c-.238-.24-.626-.24-.865 0L26.957 3.84c-.347.347-.9.345-1.266.02C22.466.99 18.04-.553 13.23.18c-6.5.99-11.708 6.2-12.7 12.7-.75 4.914.877 9.43 3.87 12.675.224.243.224.615-.01.85l-4.21 4.21c-.24.24-.24.627 0 .866l.336.337c.24.24.628.24.866 0l8.58-8.58c.204-.203.518-.23.763-.077 1.827 1.134 4.07 1.655 6.447 1.262 3.86-.64 6.962-3.74 7.6-7.6.394-2.378-.128-4.62-1.26-6.448-.154-.245-.127-.56.077-.763l8.008-8.01c.24-.238.24-.626 0-.866"/></svg>