<svg xmlns="http://www.w3.org/2000/svg" width="24" height="25" viewBox="0 0 24 25"><path fill="#fff" fill-rule="evenodd" d="M4.86 10.33c.484-2.906 2.827-5.248 5.732-5.732 2.212-.368 4.27.312 5.775 1.615.198.172.198.482.012.667l-9.237 9.236c-.186.186-.496.186-.668-.012C5.172 14.6 4.493 12.54 4.86 10.33M23.866.557L23.61.304c-.18-.18-.473-.18-.654 0L20.36 2.9c-.263.262-.68.26-.956.015C16.967.748 13.624-.417 9.994.137 5.083.887 1.148 4.82.4 9.727c-.567 3.714.663 7.125 2.923 9.575.17.184.17.464-.007.64l-3.18 3.182c-.18.18-.18.473 0 .654l.254.255c.18.18.474.18.654 0l6.48-6.48c.154-.154.39-.174.577-.06 1.38.857 3.074 1.25 4.87.954 2.914-.483 5.257-2.825 5.74-5.74.297-1.796-.097-3.49-.953-4.87-.115-.185-.095-.422.06-.576l6.048-6.048c.18-.18.18-.473 0-.654"/></svg>