<svg xmlns="http://www.w3.org/2000/svg" width="32" height="32" viewBox="0 0 32 32">
  <path fill="#000000" fill-rule="evenodd" d="M6.43595811,13.6763553 C7.07582948,9.82980031 10.177496,6.72813375 14.024051,6.08826238 C16.9529279,5.60103208 19.6772657,6.50039327 21.6701475,8.22584794 C21.9326902,8.45358841 21.9326902,8.86388761 21.6866328,9.10933445 L9.45764075,21.338937 C9.21158334,21.5849945 8.80128414,21.5849945 8.57354367,21.3224518 C6.848089,19.32957 5.94872781,16.6052322 6.43595811,13.6763553 M31.5979228,0.738498131 L31.2608913,0.402077211 C31.0215501,0.162736012 30.6338418,0.162736012 30.3945006,0.402077211 L26.9570237,3.83955413 C26.6096126,4.1869652 26.058273,4.18513351 25.6913239,3.85909218 C22.4651022,0.990050616 18.0385112,-0.552234764 13.2303175,0.181663505 C6.73086066,1.1732199 1.52152619,6.3819438 0.529359234,12.88079 C-0.221024271,17.7964431 1.40674011,22.3133976 4.39972623,25.5567151 C4.62380332,25.8003303 4.62441388,26.1715534 4.39056776,26.40601 L0.179505899,30.6170719 C-0.0598352998,30.8564131 -0.0598352998,31.2441214 0.179505899,31.4834626 L0.515926819,31.8204941 C0.755268018,32.0598353 1.1435869,32.0598353 1.38231754,31.8204941 L9.96196685,23.2414554 C10.1658953,23.0369163 10.4797254,23.0106621 10.7251722,23.1633031 C12.5519805,24.2965104 14.7945831,24.8179323 17.1721205,24.4247289 C21.0314973,23.7854681 24.1337744,20.6838016 24.7724247,16.8244247 C25.1656281,14.4468874 24.6442062,12.2042848 23.5109989,10.3774765 C23.3583578,10.1320296 23.3846121,9.81819959 23.5891511,9.61427112 L31.5979228,1.60488885 C31.837264,1.36554765 31.837264,0.97783933 31.5979228,0.738498131"/>
</svg>
