<svg xmlns="http://www.w3.org/2000/svg" width="24" height="25" viewBox="0 0 24 25">
  <path fill="#FFFFFF" fill-rule="evenodd" d="M4.861077,10.3291753 C5.34434181,7.42405289 7.68688494,5.08150976 10.5920073,4.59824496 C12.8040505,4.23026279 14.861615,4.90950807 16.3667451,6.21266297 C16.5650312,6.38466466 16.5650312,6.69454438 16.3791956,6.87991886 L7.14321204,16.1163635 C6.95737643,16.3021991 6.64749671,16.3021991 6.47549502,16.103913 C5.17234012,14.5987829 4.49309484,12.5412185 4.861077,10.3291753 M23.8647276,0.557819178 L23.6101836,0.303736252 C23.4294204,0.122973081 23.1366025,0.122973081 22.9558393,0.303736252 L20.3596744,2.89990118 C20.0972911,3.16228446 19.6808902,3.16090107 19.4037508,2.91465736 C16.967137,0.74780496 13.6239406,-0.41701078 9.99253764,0.137268127 C5.08380305,0.886144122 1.1494373,4.82004874 0.400100177,9.72832219 C-0.166629255,13.4408842 1.06274476,16.8523279 3.32320666,19.3018533 C3.49244157,19.4858444 3.4929027,19.7662118 3.3162897,19.9432859 L0.135872378,23.1237032 C-0.0448907928,23.3044664 -0.0448907928,23.5972843 0.135872378,23.7780474 L0.389955305,24.0325915 C0.570718476,24.2133547 0.863997498,24.2133547 1.04429954,24.0325915 L7.52410586,17.5532463 C7.67812346,17.3987676 7.91514456,17.378939 8.10051904,17.4942216 C9.48022161,18.3500799 11.1739541,18.7438854 12.9695964,18.4469173 C15.8844025,17.9641136 18.2274068,15.6215705 18.7097493,12.7067643 C19.0067174,10.911122 18.6129119,9.21738956 17.7570536,7.83768699 C17.641771,7.65231251 17.6615996,7.41529141 17.8160783,7.26127381 L23.8647276,1.21216341 C24.0454908,1.03140024 24.0454908,0.738582349 23.8647276,0.557819178"/>
</svg>
